<?xml version="1.0" encoding="UTF-8"?>
<svg width="1280" height="640" viewBox="0 0 1280 640" xmlns="http://www.w3.org/2000/svg">
  <defs>
    <style>
      @import url('https://fonts.googleapis.com/css2?family=Exo+2:wght@700;900&amp;family=JetBrains+Mono:wght@400&amp;display=swap');
      .t-title { font-family: 'Exo 2', 'Segoe UI', system-ui, sans-serif; font-weight: 900; }
      .t-sub   { font-family: 'Exo 2', 'Segoe UI', system-ui, sans-serif; font-weight: 700; }
      .t-mono  { font-family: 'JetBrains Mono', 'Courier New', monospace;  font-weight: 400; }
    </style>

    <pattern id="dots" width="40" height="40" patternUnits="userSpaceOnUse">
      <circle cx="0"  cy="0"  r="1.1" fill="#1A2E48"/>
      <circle cx="20" cy="20" r="1.1" fill="#1A2E48"/>
    </pattern>

    <radialGradient id="glow-c" cx="50%" cy="50%" r="50%">
      <stop offset="0%"   stop-color="#0D2040" stop-opacity="1"/>
      <stop offset="100%" stop-color="#060C1A" stop-opacity="0"/>
    </radialGradient>

    <linearGradient id="bar-grad" x1="0" y1="0" x2="1" y2="0">
      <stop offset="0%"   stop-color="#00D4B4"/>
      <stop offset="100%" stop-color="#4B9FE1"/>
    </linearGradient>
  </defs>

  <!-- ─── BACKGROUND ──────────────────────────────────── -->
  <rect width="1280" height="640" fill="#060C1A"/>
  <rect width="1280" height="640" fill="url(#dots)" opacity="0.65"/>
  <ellipse cx="640" cy="320" rx="460" ry="290" fill="url(#glow-c)" opacity="0.75"/>

  <!-- Top accent bar -->
  <rect x="0" y="0" width="1280" height="4" fill="url(#bar-grad)"/>
  <!-- Bottom accent bar -->
  <rect x="0" y="636" width="1280" height="4" fill="url(#bar-grad)" opacity="0.35"/>

  <!-- Panel dividers -->
  <line x1="390" y1="0"   x2="390" y2="640" stroke="#132035" stroke-width="1"/>
  <line x1="890" y1="0"   x2="890" y2="640" stroke="#132035" stroke-width="1"/>

  <!-- ─── LEFT PANEL: NEURAL NETWORK ────────────────────── -->

  <!-- Section label -->
  <text x="200" y="76" text-anchor="middle" class="t-mono" font-size="10" fill="#00D4B4" opacity="0.55" letter-spacing="3">NEURAL  NETWORK</text>

  <!-- Dim matrix in top-left corner -->
  <text x="28" y="120" class="t-mono" font-size="11" fill="#1A3A58">[ 0.82  0.15  0.03 ]</text>
  <text x="28" y="137" class="t-mono" font-size="11" fill="#1A3A58">[ 0.11  0.74  0.15 ]</text>
  <text x="28" y="154" class="t-mono" font-size="11" fill="#1A3A58">[ 0.07  0.23  0.70 ]</text>

  <!-- Connections L1 → L2 (teal, dim) -->
  <line x1="90" y1="188" x2="200" y2="150" stroke="#00D4B4" stroke-width="0.7" opacity="0.14"/>
  <line x1="90" y1="188" x2="200" y2="210" stroke="#00D4B4" stroke-width="0.7" opacity="0.22"/>
  <line x1="90" y1="188" x2="200" y2="268" stroke="#00D4B4" stroke-width="0.7" opacity="0.10"/>
  <line x1="90" y1="188" x2="200" y2="326" stroke="#00D4B4" stroke-width="0.7" opacity="0.07"/>
  <line x1="90" y1="188" x2="200" y2="386" stroke="#00D4B4" stroke-width="0.7" opacity="0.05"/>

  <line x1="90" y1="278" x2="200" y2="150" stroke="#00D4B4" stroke-width="0.7" opacity="0.09"/>
  <line x1="90" y1="278" x2="200" y2="210" stroke="#00D4B4" stroke-width="0.7" opacity="0.16"/>
  <line x1="90" y1="278" x2="200" y2="268" stroke="#00D4B4" stroke-width="0.7" opacity="0.28"/>
  <line x1="90" y1="278" x2="200" y2="326" stroke="#00D4B4" stroke-width="0.7" opacity="0.16"/>
  <line x1="90" y1="278" x2="200" y2="386" stroke="#00D4B4" stroke-width="0.7" opacity="0.09"/>

  <line x1="90" y1="368" x2="200" y2="150" stroke="#00D4B4" stroke-width="0.7" opacity="0.05"/>
  <line x1="90" y1="368" x2="200" y2="210" stroke="#00D4B4" stroke-width="0.7" opacity="0.08"/>
  <line x1="90" y1="368" x2="200" y2="268" stroke="#00D4B4" stroke-width="0.7" opacity="0.13"/>
  <line x1="90" y1="368" x2="200" y2="326" stroke="#00D4B4" stroke-width="0.7" opacity="0.22"/>
  <line x1="90" y1="368" x2="200" y2="386" stroke="#00D4B4" stroke-width="0.7" opacity="0.26"/>

  <!-- Connections L2 → L3 (blue, dim) -->
  <line x1="200" y1="150" x2="310" y2="188" stroke="#4B9FE1" stroke-width="0.7" opacity="0.22"/>
  <line x1="200" y1="150" x2="310" y2="278" stroke="#4B9FE1" stroke-width="0.7" opacity="0.10"/>
  <line x1="200" y1="150" x2="310" y2="368" stroke="#4B9FE1" stroke-width="0.7" opacity="0.06"/>

  <line x1="200" y1="210" x2="310" y2="188" stroke="#4B9FE1" stroke-width="0.7" opacity="0.16"/>
  <line x1="200" y1="210" x2="310" y2="278" stroke="#4B9FE1" stroke-width="0.7" opacity="0.18"/>
  <line x1="200" y1="210" x2="310" y2="368" stroke="#4B9FE1" stroke-width="0.7" opacity="0.08"/>

  <line x1="200" y1="268" x2="310" y2="188" stroke="#4B9FE1" stroke-width="0.7" opacity="0.10"/>
  <line x1="200" y1="268" x2="310" y2="278" stroke="#4B9FE1" stroke-width="0.7" opacity="0.28"/>
  <line x1="200" y1="268" x2="310" y2="368" stroke="#4B9FE1" stroke-width="0.7" opacity="0.11"/>

  <line x1="200" y1="326" x2="310" y2="188" stroke="#4B9FE1" stroke-width="0.7" opacity="0.07"/>
  <line x1="200" y1="326" x2="310" y2="278" stroke="#4B9FE1" stroke-width="0.7" opacity="0.18"/>
  <line x1="200" y1="326" x2="310" y2="368" stroke="#4B9FE1" stroke-width="0.7" opacity="0.22"/>

  <line x1="200" y1="386" x2="310" y2="188" stroke="#4B9FE1" stroke-width="0.7" opacity="0.05"/>
  <line x1="200" y1="386" x2="310" y2="278" stroke="#4B9FE1" stroke-width="0.7" opacity="0.10"/>
  <line x1="200" y1="386" x2="310" y2="368" stroke="#4B9FE1" stroke-width="0.7" opacity="0.25"/>

  <!-- L1 nodes (teal) -->
  <circle cx="90" cy="188" r="15" fill="#060E1C" stroke="#00D4B4" stroke-width="1.5"/>
  <circle cx="90" cy="278" r="15" fill="#060E1C" stroke="#00D4B4" stroke-width="1.5"/>
  <circle cx="90" cy="368" r="15" fill="#060E1C" stroke="#00D4B4" stroke-width="1.5"/>
  <circle cx="90" cy="188" r="5"  fill="#00D4B4" opacity="0.75"/>
  <circle cx="90" cy="278" r="5"  fill="#00D4B4" opacity="0.75"/>
  <circle cx="90" cy="368" r="5"  fill="#00D4B4" opacity="0.75"/>

  <!-- L2 nodes (blue) -->
  <circle cx="200" cy="150" r="12" fill="#060E1C" stroke="#4B9FE1" stroke-width="1.4"/>
  <circle cx="200" cy="210" r="12" fill="#060E1C" stroke="#4B9FE1" stroke-width="1.4"/>
  <circle cx="200" cy="268" r="12" fill="#060E1C" stroke="#4B9FE1" stroke-width="1.4"/>
  <circle cx="200" cy="326" r="12" fill="#060E1C" stroke="#4B9FE1" stroke-width="1.4"/>
  <circle cx="200" cy="386" r="12" fill="#060E1C" stroke="#4B9FE1" stroke-width="1.4"/>
  <circle cx="200" cy="150" r="4"  fill="#4B9FE1" opacity="0.75"/>
  <circle cx="200" cy="210" r="4"  fill="#4B9FE1" opacity="0.75"/>
  <circle cx="200" cy="268" r="4"  fill="#4B9FE1" opacity="0.75"/>
  <circle cx="200" cy="326" r="4"  fill="#4B9FE1" opacity="0.75"/>
  <circle cx="200" cy="386" r="4"  fill="#4B9FE1" opacity="0.75"/>

  <!-- L3 nodes (teal, brighter) -->
  <circle cx="310" cy="188" r="15" fill="#060E1C" stroke="#00D4B4" stroke-width="1.8"/>
  <circle cx="310" cy="278" r="15" fill="#060E1C" stroke="#00D4B4" stroke-width="1.8"/>
  <circle cx="310" cy="368" r="15" fill="#060E1C" stroke="#00D4B4" stroke-width="1.8"/>
  <circle cx="310" cy="188" r="5"  fill="#00D4B4" opacity="0.90"/>
  <circle cx="310" cy="278" r="5"  fill="#00D4B4" opacity="0.90"/>
  <circle cx="310" cy="368" r="5"  fill="#00D4B4" opacity="0.90"/>

  <!-- NN Layer labels -->
  <text x="90"  y="510" text-anchor="middle" class="t-mono" font-size="9" fill="#2A4A6A" letter-spacing="1.5">INPUT</text>
  <text x="200" y="510" text-anchor="middle" class="t-mono" font-size="9" fill="#2A4A6A" letter-spacing="1.5">HIDDEN</text>
  <text x="310" y="510" text-anchor="middle" class="t-mono" font-size="9" fill="#2A4A6A" letter-spacing="1.5">OUTPUT</text>

  <!-- Activation label -->
  <text x="200" y="555" text-anchor="middle" class="t-mono" font-size="11" fill="#1E3A5A">f(x) = ReLU(Wx + b)</text>

  <!-- ─── CENTER PANEL: TITLE ────────────────────────────── -->

  <!-- Dim import code at top -->
  <text x="435" y="122" class="t-mono" font-size="11" fill="#162A42">import numpy  as np</text>
  <text x="435" y="140" class="t-mono" font-size="11" fill="#162A42">import pandas as pd</text>
  <text x="435" y="158" class="t-mono" font-size="11" fill="#162A42">from sklearn import *</text>

  <!-- Math symbols (very dim, decorative) -->
  <text x="430" y="232" class="t-title" font-size="36" fill="#0E2035">∑</text>
  <text x="820" y="232" class="t-title" font-size="36" fill="#0E2035">∇</text>
  <text x="455" y="395" class="t-mono"  font-size="13" fill="#0E2035">σ(x) = 1/(1+e⁻ˣ)</text>
  <text x="730" y="395" class="t-mono"  font-size="13" fill="#0E2035">L(y, ŷ) = −∑y log ŷ</text>

  <!-- Main title -->
  <text x="640" y="268"
        text-anchor="middle" class="t-title"
        font-size="100" fill="#E8EDF7"
        letter-spacing="-3">DATA</text>

  <text x="640" y="370"
        text-anchor="middle" class="t-title"
        font-size="100" fill="#00D4B4"
        letter-spacing="-3">SCIENCE</text>

  <!-- Accent divider -->
  <line x1="430" y1="398" x2="600" y2="398" stroke="#132035" stroke-width="1" opacity="0.8"/>
  <line x1="680" y1="398" x2="850" y2="398" stroke="#132035" stroke-width="1" opacity="0.8"/>
  <rect  x="626" y="392" width="28" height="12" rx="6" fill="#00D4B4" opacity="0.15"/>
  <line x1="600" y1="398" x2="680" y2="398" stroke="#00D4B4" stroke-width="1" opacity="0.35"/>

  <!-- Subtitle -->
  <text x="640" y="425"
        text-anchor="middle" class="t-sub"
        font-size="19" fill="#4B9FE1"
        letter-spacing="5" opacity="0.9">STUDIES  &amp;  PROJECTS</text>

  <!-- Topic badges -->
  <rect x="435" y="448" width="128" height="22" rx="11" fill="#0A1B2E" stroke="#1E3A5A" stroke-width="1"/>
  <text x="499" y="463" text-anchor="middle" class="t-mono" font-size="10" fill="#00D4B4" letter-spacing="1">MACHINE LEARNING</text>

  <rect x="576" y="448" width="92"  height="22" rx="11" fill="#0A1B2E" stroke="#1E3A5A" stroke-width="1"/>
  <text x="622" y="463" text-anchor="middle" class="t-mono" font-size="10" fill="#4B9FE1" letter-spacing="1">STATISTICS</text>

  <rect x="680" y="448" width="70"  height="22" rx="11" fill="#0A1B2E" stroke="#1E3A5A" stroke-width="1"/>
  <text x="715" y="463" text-anchor="middle" class="t-mono" font-size="10" fill="#8B7CF6" letter-spacing="1">PYTHON</text>

  <rect x="762" y="448" width="112" height="22" rx="11" fill="#0A1B2E" stroke="#1E3A5A" stroke-width="1"/>
  <text x="818" y="463" text-anchor="middle" class="t-mono" font-size="10" fill="#00D4B4" letter-spacing="1">VISUALIZATION</text>

  <!-- Code snippets (dim, bottom center) -->
  <text x="440" y="498" class="t-mono" font-size="11" fill="#132535">model.fit(X_train, y_train)</text>
  <text x="440" y="515" class="t-mono" font-size="11" fill="#132535">score = model.score(X_test, y_test)</text>

  <!-- ─── RIGHT PANEL: CHARTS ──────────────────────────── -->

  <!-- Section label: scatter -->
  <text x="1065" y="76" text-anchor="middle" class="t-mono" font-size="10" fill="#00D4B4" opacity="0.55" letter-spacing="3">CLASSIFICATION</text>

  <!-- Scatter axes -->
  <line x1="930" y1="108" x2="930" y2="360" stroke="#1A3050" stroke-width="1"/>
  <line x1="930" y1="360" x2="1240" y2="360" stroke="#1A3050" stroke-width="1"/>

  <!-- Tick marks (scatter) -->
  <line x1="925" y1="160" x2="935" y2="160" stroke="#1A3050" stroke-width="1"/>
  <line x1="925" y1="210" x2="935" y2="210" stroke="#1A3050" stroke-width="1"/>
  <line x1="925" y1="260" x2="935" y2="260" stroke="#1A3050" stroke-width="1"/>
  <line x1="925" y1="310" x2="935" y2="310" stroke="#1A3050" stroke-width="1"/>
  <line x1="990" y1="355" x2="990" y2="365" stroke="#1A3050" stroke-width="1"/>
  <line x1="1050" y1="355" x2="1050" y2="365" stroke="#1A3050" stroke-width="1"/>
  <line x1="1110" y1="355" x2="1110" y2="365" stroke="#1A3050" stroke-width="1"/>
  <line x1="1170" y1="355" x2="1170" y2="365" stroke="#1A3050" stroke-width="1"/>
  <line x1="1230" y1="355" x2="1230" y2="365" stroke="#1A3050" stroke-width="1"/>

  <!-- Cluster 1 (teal, around 1010, 205) -->
  <circle cx="988"  cy="192" r="4" fill="#00D4B4" opacity="0.78"/>
  <circle cx="1005" cy="185" r="4" fill="#00D4B4" opacity="0.78"/>
  <circle cx="1018" cy="198" r="4" fill="#00D4B4" opacity="0.78"/>
  <circle cx="1000" cy="212" r="4" fill="#00D4B4" opacity="0.78"/>
  <circle cx="1025" cy="192" r="4" fill="#00D4B4" opacity="0.78"/>
  <circle cx="990"  cy="220" r="4" fill="#00D4B4" opacity="0.78"/>
  <circle cx="1012" cy="218" r="4" fill="#00D4B4" opacity="0.78"/>
  <circle cx="975"  cy="205" r="4" fill="#00D4B4" opacity="0.78"/>
  <circle cx="1002" cy="178" r="4" fill="#00D4B4" opacity="0.78"/>
  <circle cx="982"  cy="232" r="4" fill="#00D4B4" opacity="0.65"/>
  <circle cx="1032" cy="205" r="4" fill="#00D4B4" opacity="0.65"/>
  <circle cx="968"  cy="195" r="4" fill="#00D4B4" opacity="0.65"/>
  <circle cx="1020" cy="228" r="4" fill="#00D4B4" opacity="0.65"/>
  <circle cx="994"  cy="242" r="4" fill="#00D4B4" opacity="0.52"/>
  <circle cx="1040" cy="182" r="4" fill="#00D4B4" opacity="0.52"/>

  <!-- Cluster 2 (blue, around 1112, 282) -->
  <circle cx="1090" cy="268" r="4" fill="#4B9FE1" opacity="0.78"/>
  <circle cx="1105" cy="258" r="4" fill="#4B9FE1" opacity="0.78"/>
  <circle cx="1118" cy="275" r="4" fill="#4B9FE1" opacity="0.78"/>
  <circle cx="1098" cy="285" r="4" fill="#4B9FE1" opacity="0.78"/>
  <circle cx="1128" cy="268" r="4" fill="#4B9FE1" opacity="0.78"/>
  <circle cx="1096" cy="295" r="4" fill="#4B9FE1" opacity="0.78"/>
  <circle cx="1112" cy="252" r="4" fill="#4B9FE1" opacity="0.78"/>
  <circle cx="1080" cy="278" r="4" fill="#4B9FE1" opacity="0.78"/>
  <circle cx="1135" cy="260" r="4" fill="#4B9FE1" opacity="0.78"/>
  <circle cx="1122" cy="295" r="4" fill="#4B9FE1" opacity="0.78"/>
  <circle cx="1070" cy="265" r="4" fill="#4B9FE1" opacity="0.65"/>
  <circle cx="1138" cy="280" r="4" fill="#4B9FE1" opacity="0.65"/>
  <circle cx="1102" cy="308" r="4" fill="#4B9FE1" opacity="0.65"/>
  <circle cx="1148" cy="255" r="4" fill="#4B9FE1" opacity="0.52"/>
  <circle cx="1075" cy="292" r="4" fill="#4B9FE1" opacity="0.52"/>

  <!-- Outliers (gray) -->
  <circle cx="1062" cy="238" r="3.5" fill="#3D6080" opacity="0.45"/>
  <circle cx="1155" cy="228" r="3.5" fill="#3D6080" opacity="0.45"/>
  <circle cx="1052" cy="318" r="3.5" fill="#3D6080" opacity="0.45"/>
  <circle cx="1168" cy="308" r="3.5" fill="#3D6080" opacity="0.45"/>
  <circle cx="945"  cy="192" r="3.5" fill="#3D6080" opacity="0.35"/>

  <!-- Decision boundary (dashed diagonal) -->
  <line x1="958"  y1="165" x2="1180" y2="348"
        stroke="#8B7CF6" stroke-width="1.3"
        stroke-dasharray="7 4" opacity="0.45"/>

  <!-- Legend (scatter) -->
  <circle cx="948"  cy="115" r="4" fill="#00D4B4" opacity="0.8"/>
  <text   x="956"  y="119" class="t-mono" font-size="9" fill="#2A4A6A">Class A</text>
  <circle cx="998"  cy="115" r="4" fill="#4B9FE1" opacity="0.8"/>
  <text   x="1006" y="119" class="t-mono" font-size="9" fill="#2A4A6A">Class B</text>
  <line   x1="1058" y1="111" x2="1072" y2="119"
          stroke="#8B7CF6" stroke-width="1.2"
          stroke-dasharray="4 3" opacity="0.6"/>
  <text   x="1076" y="119" class="t-mono" font-size="9" fill="#2A4A6A">boundary</text>

  <!-- ─── TRAINING CURVE ───────────────────────────────── -->

  <!-- Section label -->
  <text x="1065" y="392" text-anchor="middle" class="t-mono" font-size="10" fill="#4B9FE1" opacity="0.55" letter-spacing="3">MODEL  TRAINING</text>

  <!-- Axes -->
  <line x1="930" y1="420" x2="930" y2="575" stroke="#1A3050" stroke-width="1"/>
  <line x1="930" y1="575" x2="1240" y2="575" stroke="#1A3050" stroke-width="1"/>

  <!-- Axis labels -->
  <text x="920" y="425" text-anchor="end" class="t-mono" font-size="9" fill="#2A4A6A">Loss</text>
  <text x="1240" y="590" text-anchor="end" class="t-mono" font-size="9" fill="#2A4A6A">Epochs →</text>

  <!-- Y-tick marks -->
  <line x1="925" y1="440" x2="935" y2="440" stroke="#1A3050" stroke-width="1"/>
  <line x1="925" y1="480" x2="935" y2="480" stroke="#1A3050" stroke-width="1"/>
  <line x1="925" y1="520" x2="935" y2="520" stroke="#1A3050" stroke-width="1"/>
  <line x1="925" y1="560" x2="935" y2="560" stroke="#1A3050" stroke-width="1"/>

  <!-- X-tick marks -->
  <line x1="1010" y1="570" x2="1010" y2="580" stroke="#1A3050" stroke-width="1"/>
  <line x1="1085" y1="570" x2="1085" y2="580" stroke="#1A3050" stroke-width="1"/>
  <line x1="1160" y1="570" x2="1160" y2="580" stroke="#1A3050" stroke-width="1"/>
  <line x1="1235" y1="570" x2="1235" y2="580" stroke="#1A3050" stroke-width="1"/>

  <!-- Training loss fill area -->
  <path d="M 940 558
           C 975 553 1010 535 1050 510
           C 1085 488 1120 465 1155 453
           C 1180 447 1210 448 1230 447
           L 1230 575 L 940 575 Z"
        fill="#4B9FE1" opacity="0.06"/>

  <!-- Training loss curve -->
  <path d="M 940 558
           C 975 553 1010 535 1050 510
           C 1085 488 1120 465 1155 453
           C 1180 447 1210 448 1230 447"
        fill="none" stroke="#4B9FE1" stroke-width="2.2" opacity="0.80"/>

  <!-- Validation loss curve (dashed, slightly higher late) -->
  <path d="M 940 560
           C 975 551 1010 530 1050 510
           C 1085 492 1120 478 1155 474
           C 1180 472 1210 476 1230 480"
        fill="none" stroke="#8B7CF6" stroke-width="1.6"
        stroke-dasharray="6 4" opacity="0.60"/>

  <!-- Legend (curves) -->
  <line x1="940" y1="408" x2="960" y2="408" stroke="#4B9FE1" stroke-width="2" opacity="0.8"/>
  <text x="964"  y="412" class="t-mono" font-size="9" fill="#2A4A6A">train loss</text>
  <line x1="1030" y1="408" x2="1050" y2="408" stroke="#8B7CF6" stroke-width="1.5"
        stroke-dasharray="5 3" opacity="0.7"/>
  <text x="1054" y="412" class="t-mono" font-size="9" fill="#2A4A6A">val loss</text>

  <!-- Convergence dot + label -->
  <circle cx="1155" cy="453" r="4" fill="#4B9FE1" opacity="0.9"/>
  <text x="1162" y="448" class="t-mono" font-size="9" fill="#4B9FE1" opacity="0.7">converging</text>
</svg>
